<?xml version="1.0" encoding="utf-8"?>
<!-- Generator: Adobe Illustrator 21.1.0, SVG Export Plug-In . SVG Version: 6.00 Build 0)  -->
<svg version="1.1" id="Layer_1" xmlns="http://www.w3.org/2000/svg" xmlns:xlink="http://www.w3.org/1999/xlink" x="0px" y="0px"
	 viewBox="0 0 512 512" style="enable-background:new 0 0 512 512;" xml:space="preserve">
<style type="text/css">
	.st0{fill:#FFFFFF;}
</style>
<g>
	<g>
		<rect x="248.4" y="127" class="st0" width="15.1" height="258.1"/>
		<path class="st0" d="M263.4,127.1v257.8h-14.8V127.1H263.4 M263.7,126.8h-0.3h-14.8h-0.3v0.3v257.8v0.3h0.3h14.8h0.3v-0.3V127.1
			V126.8L263.7,126.8z"/>
	</g>
	<g>
		<rect x="127" y="248.4" class="st0" width="258.1" height="15.1"/>
		<path class="st0" d="M384.9,248.6v14.8H127.1v-14.8H384.9 M385.2,248.3h-0.3H127.1h-0.3v0.3v14.8v0.3h0.3h257.8h0.3v-0.3v-14.8
			V248.3L385.2,248.3z"/>
	</g>
	<g>
		<path class="st0" d="M256,31.3c124.1,0,224.7,100.6,224.7,224.7S380.1,480.7,256,480.7S31.3,380.1,31.3,256S131.9,31.3,256,31.3
			 M256,18.3c-32.1,0-63.2,6.3-92.5,18.7c-28.3,12-53.7,29.1-75.6,50.9c-21.8,21.8-39,47.2-50.9,75.6
			c-12.4,29.3-18.7,60.4-18.7,92.5s6.3,63.2,18.7,92.5c12,28.3,29.1,53.7,50.9,75.6c21.8,21.8,47.2,39,75.6,50.9
			c29.3,12.4,60.4,18.7,92.5,18.7s63.2-6.3,92.5-18.7c28.3-12,53.7-29.1,75.6-50.9c21.8-21.8,39-47.2,50.9-75.6
			c12.4-29.3,18.7-60.4,18.7-92.5s-6.3-63.2-18.7-92.5c-12-28.3-29.1-53.7-50.9-75.6c-21.8-21.8-47.2-39-75.6-50.9
			C319.2,24.6,288.1,18.3,256,18.3L256,18.3z"/>
	</g>
</g>
</svg>
